HIERARCHY
ROOT Hips
{
  OFFSET 1.44925e-005 102.336 -0.101585
  CHANNELS 6 Xposition Yposition Zposition Zrotation Xrotation Yrotation
  JOINT LeftUpLeg
  {
    OFFSET 8.9458 -8.66707 0.101652
    CHANNELS 3 Zrotation Xrotation Yrotation
    JOINT LeftLeg
    {
      OFFSET 0 -44.4227 1.3727
      CHANNELS 3 Zrotation Xrotation Yrotation
      JOINT LeftFoot
      {
        OFFSET -0.253549 -42.0924 -1.46059
        CHANNELS 3 Zrotation Xrotation Yrotation
        JOINT LeftToes
        {
          OFFSET -0.04 -4.41509 8.4991
          CHANNELS 3 Zrotation Xrotation Yrotation
          End Site
          {
            OFFSET 0.08 -0.047448 9.77979
          }
        }
      }
    }
  }
  JOINT Spine
  {
    OFFSET 0 11.8905 0
    CHANNELS 3 Zrotation Xrotation Yrotation
    JOINT Spine1
    {
      OFFSET 0 25.6574 0.127663
      CHANNELS 3 Zrotation Xrotation Yrotation
      JOINT RightShoulder
      {
        OFFSET -8.99 -0.362252 -0.22
        CHANNELS 3 Zrotation Xrotation Yrotation
        JOINT RightArm
        {
          OFFSET -10.2827 -0.00338 0.322123
          CHANNELS 3 Zrotation Xrotation Yrotation
          JOINT RightForeArm
          {
            OFFSET -26.364 0.099144 -1.42434
            CHANNELS 3 Zrotation Xrotation Yrotation
            JOINT RightHand
            {
              OFFSET -22.0324 0.085362 1.02216
              CHANNELS 3 Zrotation Xrotation Yrotation
              End Site
              {
                OFFSET -13.3284 -0.6 1.50291
              }
            }
          }
        }
      }
      JOINT LeftShoulder1
      {
        OFFSET 8.99 -0.362252 -0.22
        CHANNELS 3 Zrotation Xrotation Yrotation
        JOINT LeftArm
        {
          OFFSET 10.2827 -0.00337999 0.322123
          CHANNELS 3 Zrotation Xrotation Yrotation
          JOINT LeftForeArm
          {
            OFFSET 26.2597 0.099144 -1.42434
            CHANNELS 3 Zrotation Xrotation Yrotation
            JOINT LeftHand
            {
              OFFSET 22.0902 0.085362 1.02216
              CHANNELS 3 Zrotation Xrotation Yrotation
              End Site
              {
                OFFSET 13.419 -0.6 1.50291
              }
            }
          }
        }
      }
      JOINT Head
      {
        OFFSET 0 8.73416 0.011341
        CHANNELS 3 Zrotation Xrotation Yrotation
        End Site
        {
          OFFSET -0.29 12.7742 2.51395
        }
      }
    }
  }
  JOINT RightUpLeg
  {
    OFFSET -8.9458 -8.66707 0.101652
    CHANNELS 3 Zrotation Xrotation Yrotation
    JOINT RightLeg
    {
      OFFSET 0 -44.4227 1.3727
      CHANNELS 3 Zrotation Xrotation Yrotation
      JOINT RightFoot
      {
        OFFSET 0.253549 -42.0924 -1.46059
        CHANNELS 3 Zrotation Xrotation Yrotation
        JOINT RightToes
        {
          OFFSET 0.04 -4.41509 8.4991
          CHANNELS 3 Zrotation Xrotation Yrotation
          End Site
          {
            OFFSET -0.08 -0.137448 9.77979
          }
        }
      }
    }
  }
}
MOTION
Frames:	19
Frame Time:	0.0333333
48.3262 96.9443 2.38584 -8.0321 2.72837 -90.6376 -0.091496 13.9747 0.505847 1.13555 36.6248 18.0217 -13.938 -22.4017 -1.73631 -1.32781e-009 8.75223e-006 -1.45757e-008 8.7599 12.4341 -1.79643 -1.36077 1.37444 -0.327556 37.993 1.78411 0.0492576 36.1263 -23.4101 -1.28735 8.59362 39.7941 6.29702 -8.34648 9.56419 -0.331319 -45.8973 3.61811 -3.35905 -26.9925 -13.32 5.82307 -3.70936 34.183 -15.6763 5.82328 9.61819 -0.917488 -0.120202 -13.1815 -5.15066 3.40235 -18.7049 -3.26613 -0.321106 25.7769 -14.763 1.77714 -5.76717 -0.191682 0.0462048 0.000530889 0.662642 
45.4769 97.0007 1.65552 -8.05165 3.53305 -89.8155 1.98937 10.4541 0.811173 1.27084 45.1994 17.2174 -12.4689 -15.6402 -0.83774 -1.32781e-009 8.75223e-006 -1.45757e-008 9.77732 12.6212 -2.34147 -0.667528 0.802176 -0.715164 37.9756 1.78109 0.0395155 36.0442 -22.2233 -1.05744 8.24794 38.3 7.35955 -8.42926 9.55639 -0.266755 -45.7653 3.60265 -3.34883 -27.0986 -14.6258 7.2787 -4.33264 35.8112 -14.5151 5.82328 9.61819 -0.917488 -0.211767 -12.6158 -4.83547 4.81954 -17.7317 -3.26826 -0.438763 27.703 -15.3151 0.145014 -8.25268 -0.173923 0.0462048 0.000530889 0.662642 
42.8919 97.0443 0.92767 -8.10206 4.17263 -88.6285 3.65677 5.66245 0.253878 1.54096 54.3448 17.1841 -8.5567 -7.28591 0.0570236 -1.32781e-009 8.75223e-006 -1.45757e-008 10.5512 12.9569 -2.78833 0.155058 0.227608 -1.00576 38.0783 1.77926 0.0253404 35.9385 -19.9913 -0.874757 7.60155 34.7075 9.45398 -8.68989 9.5389 -0.17689 -45.5815 3.58567 -3.34338 -27.5067 -14.4787 8.03147 -4.25543 36.5199 -14.4668 5.82328 9.61819 -0.917488 -0.0978538 -11.9958 -5.08039 5.89685 -16.7685 -3.6094 -0.413913 29.2344 -16.2799 -0.51283 -10.2419 -0.198944 0.0462048 0.000530889 0.662642 
40.5506 97.0797 0.295993 -8.48724 4.60201 -87.6741 4.57091 0.999167 -0.499488 1.97736 62.3768 17.6123 -6.09337 -1.76628 0.321127 -1.32781e-009 8.75223e-006 -1.45757e-008 11.401 13.4774 -3.03223 0.469411 0.156447 -0.953237 38.0457 1.7785 0.0270221 36.1703 -17.3615 -0.0750184 6.98998 30.9591 11.5426 -8.85089 9.52689 -0.106803 -45.5029 3.57915 -3.34279 -27.9695 -13.8939 7.93395 -3.7171 36.025 -15.2095 5.82328 9.61819 -0.917488 0.277517 -11.9316 -5.7309 6.57461 -15.3504 -4.2911 -0.323081 30.3492 -16.6481 -0.213242 -12.1459 -0.209578 0.0462048 0.000530889 0.662642 
38.2401 97.3218 -0.246527 -9.09751 4.5565 -87.3072 4.61977 -2.88191 -0.775018 2.51752 68.3154 17.9014 -5.59473 -1.25879 0.305904 -1.32781e-009 8.75223e-006 -1.45757e-008 11.9472 13.8709 -2.94985 0.150489 0.559695 -0.566742 37.8073 1.77528 0.0415356 36.6786 -14.8308 1.3642 6.48725 28.396 13.1426 -9.03015 9.51063 0.00860236 -45.5532 3.58403 -3.34187 -28.3595 -12.6839 7.3781 -2.98272 33.9267 -16.5579 5.82328 9.61819 -0.917488 0.617526 -12.1921 -6.42775 6.72691 -13.0885 -4.80384 -0.0348808 30.4374 -16.6356 0.0486141 -14.0156 -0.211966 0.0462048 0.000530889 0.662642 
35.9126 97.7545 -0.735195 -9.54579 4.18671 -87.401 4.1631 -6.40778 -0.715154 2.99856 72.0175 17.2214 -5.88237 -3.67785 0.211067 -1.32781e-009 8.75223e-006 -1.45757e-008 12.1825 13.9396 -2.61493 -0.505661 0.940215 0.00789318 37.4712 1.77161 0.0598951 37.1919 -12.234 2.92561 6.0893 26.4746 14.4243 -9.33035 9.48284 0.200597 -45.6049 3.5842 -3.33712 -28.7207 -10.6885 6.89726 -2.06456 30.9238 -18.4519 5.82328 9.61819 -0.917488 0.635744 -12.0821 -6.96321 6.55327 -10.5288 -4.77504 0.512728 29.6027 -16.8907 0.0188457 -15.3848 -0.222096 0.0462048 0.000530889 0.662642 
33.6346 98.1655 -1.17588 -9.74792 3.80063 -87.5926 3.50543 -9.88401 -0.952019 3.20833 73.7362 15.9294 -6.28872 -5.94967 0.115143 -1.32781e-009 8.75223e-006 -1.45757e-008 12.4088 13.8576 -2.25437 -1.25281 0.92475 0.565651 37.1485 1.76922 0.0812262 37.5592 -9.37727 4.21533 5.68843 24.3648 15.795 -9.36062 9.47367 0.306978 -45.5065 3.57026 -3.32468 -29.0847 -8.72928 6.71909 -0.876761 28.3852 -20.7667 5.82328 9.61819 -0.917488 0.396345 -11.3754 -7.34114 6.30444 -8.20922 -4.54829 1.11645 28.5615 -17.2602 0.193438 -16.3705 -0.214774 0.0462048 0.000530889 0.662642 
31.4215 98.4896 -1.57133 -9.93272 3.41846 -87.6263 2.60576 -12.9996 -1.74706 3.08393 73.6525 15.097 -6.42179 -7.45787 0.0411658 -1.32781e-009 8.75223e-006 -1.45757e-008 12.5996 13.8612 -2.00714 -2.01318 0.64613 0.949908 36.8677 1.76795 0.10285 37.8042 -6.40112 5.20502 5.11324 21.9893 17.5656 -8.95952 9.49932 0.221281 -45.2998 3.54692 -3.30997 -29.2321 -7.98738 6.65789 0.363104 27.2823 -23.2054 5.82328 9.61819 -0.917488 0.106333 -10.5197 -7.63786 6.01188 -5.94327 -4.54999 1.61168 27.536 -17.3987 0.588969 -17.3996 -0.185815 0.0462048 0.000530889 0.662642 
29.2588 98.7735 -1.93054 -10.1748 2.97325 -87.563 1.56897 -15.4978 -2.75924 2.72535 71.829 14.9061 -6.34618 -9.23535 -0.0479424 -1.32781e-009 8.75223e-006 -1.45757e-008 12.5887 13.9017 -1.81285 -2.70815 0.465822 1.18768 36.6347 1.76724 0.11526 37.978 -3.86032 6.01021 4.45137 19.7825 19.6712 -8.78967 9.51277 0.144922 -45.2102 3.53653 -3.30301 -28.8819 -8.79445 6.44685 1.29249 27.6859 -25.4319 5.82328 9.61819 -0.917488 -0.198693 -9.99578 -7.85399 5.67367 -3.57193 -4.75134 1.9872 26.3855 -17.3375 0.76462 -18.4603 -0.170681 0.0462048 0.000530889 0.662642 
27.1389 99.0231 -2.2633 -10.3173 2.5468 -87.6612 0.74999 -17.5163 -3.50652 2.26996 68.3841 14.9137 -6.4528 -11.0744 -0.14393 -1.32781e-009 8.75223e-006 -1.45757e-008 12.3705 13.8151 -1.53689 -3.28236 0.460539 1.40767 36.4933 1.76694 0.117659 38.12 -2.53112 6.72808 4.01885 18.4611 21.6403 -9.35473 9.4734 0.311838 -45.3063 3.54629 -3.30783 -28.2587 -9.94827 6.06533 1.87873 28.4106 -27.1898 5.82328 9.61819 -0.917488 -0.537898 -9.80441 -7.86995 5.36386 -1.32446 -5.01994 2.24172 25.1404 -17.017 0.652643 -19.3186 -0.182066 0.0462048 0.000530889 0.662642 
25.0561 99.2298 -2.58702 -10.3024 2.20257 -88.03 0.284431 -19.1163 -3.83801 1.84634 63.4948 14.976 -6.96387 -11.9208 -0.205943 -1.32781e-009 8.75223e-006 -1.45757e-008 11.9633 13.641 -1.17106 -3.78878 0.443534 1.63766 36.4838 1.76689 0.118617 38.2832 -2.40374 7.43133 3.87402 18.3288 23.0073 -10.0393 9.41974 0.56994 -45.3501 3.55441 -3.31704 -27.7855 -10.8137 5.68326 2.3139 28.859 -28.3376 5.82328 9.61819 -0.917488 -0.773516 -9.66177 -7.61218 5.1199 0.719631 -5.28566 2.37695 23.8505 -16.3485 0.529475 -19.9773 -0.196181 0.0462048 0.000530889 0.662642 
23.0055 99.4076 -2.91485 -10.2406 1.88585 -88.5284 0.0111519 -20.1146 -3.90501 1.51951 57.3019 15.0359 -7.61786 -11.8536 -0.226717 -1.32781e-009 8.75223e-006 -1.45757e-008 11.3151 13.5188 -0.813164 -4.23286 0.355571 1.8079 36.5612 1.76694 0.120224 38.5188 -2.48451 8.13177 3.76892 18.7166 23.6855 -10.0643 9.41646 0.592775 -45.1723 3.54133 -3.31772 -27.5728 -11.5333 5.37208 2.58995 29.1817 -28.8049 5.82328 9.61819 -0.917488 -0.77888 -9.45104 -7.2223 4.92861 2.72959 -5.48703 2.41247 22.4745 -15.5576 0.488746 -20.5703 -0.20214 0.0462048 0.000530889 0.662642 
20.9738 99.5452 -3.22926 -10.1801 1.5892 -89.0162 -0.14797 -20.4527 -3.85893 1.26851 49.983 14.9065 -8.09873 -11.6427 -0.230917 -1.32781e-009 8.75223e-006 -1.45757e-008 10.4581 13.4307 -0.498787 -4.47424 0.311404 1.89996 36.6262 1.76691 0.122227 38.8694 -2.30442 8.73937 3.63631 18.9967 23.8585 -9.71983 9.44713 0.424182 -44.9669 3.51975 -3.30584 -27.4153 -11.7462 5.06152 2.52017 29.1283 -28.5699 5.82328 9.61819 -0.917488 -0.663624 -9.28931 -6.91611 4.79066 4.69206 -5.62669 2.37538 21.1431 -14.8996 0.450499 -21.154 -0.208204 0.0462048 0.000530889 0.662642 
18.9375 99.6193 -3.49354 -10.0552 1.37157 -89.5259 -0.142312 -20.2516 -3.77876 1.08184 41.88 14.9334 -8.32712 -11.5547 -0.233009 -1.32781e-009 8.75223e-006 -1.45757e-008 9.53503 13.2849 -0.190707 -4.48789 0.35066 1.96882 36.6565 1.76787 0.123981 39.2827 -1.92459 9.12855 3.64216 18.956 23.7016 -9.72308 9.4506 0.375243 -44.9665 3.51116 -3.29183 -27.1104 -11.2754 4.77109 2.09681 28.6389 -27.7761 5.82328 9.61819 -0.917488 -0.622168 -9.24594 -6.70611 4.7026 6.46171 -5.714 2.29599 20.0158 -14.3435 0.376519 -21.7051 -0.219098 0.0462048 0.000530889 0.662642 
16.8866 99.6657 -3.68925 -9.85279 1.21802 -90.1354 -0.0502649 -19.5598 -3.78957 0.983461 33.383 15.8599 -8.0447 -11.5529 -0.222961 -1.32781e-009 8.75223e-006 -1.45757e-008 8.63332 13.1185 0.10647 -4.53622 0.414982 2.05493 36.7174 1.77141 0.124841 39.5969 -1.12657 9.25327 3.7838 18.6028 23.2885 -9.95366 9.43118 0.477858 -45.0716 3.50874 -3.28844 -26.775 -10.3846 4.64074 1.52468 27.9381 -26.6149 5.82328 9.61819 -0.917488 -0.678222 -9.21151 -6.42844 4.61914 8.15957 -5.70324 2.16704 18.8591 -13.745 0.246847 -22.1285 -0.237453 0.0462048 0.000530889 0.662642 
14.8073 99.7244 -3.82228 -9.64141 1.05328 -90.843 -0.000745887 -18.432 -3.73084 1.04359 24.8873 17.3165 -6.99096 -11.507 -0.184349 -1.32781e-009 8.75223e-006 -1.45757e-008 7.73311 13.0043 0.341812 -4.79757 0.502739 2.14407 36.8225 1.77543 0.124164 39.7568 0.137632 9.1767 3.89013 18.3405 22.5995 -9.81941 9.4359 0.504734 -45.0698 3.50917 -3.29716 -26.6294 -9.35992 4.74622 0.917452 27.1716 -25.1498 5.82328 9.61819 -0.917488 -0.73078 -9.09601 -6.01679 4.50024 10.0136 -5.57499 1.96987 17.3802 -13.1371 0.135946 -22.3943 -0.253439 0.0462048 0.000530889 0.662642 
12.6347 99.7191 -3.89679 -9.4278 0.909206 -91.5184 0.0340974 -17.2323 -2.83059 1.22669 17.2767 17.8228 -5.78926 -11.1771 -0.128104 -1.32781e-009 8.75223e-006 -1.45757e-008 6.82576 12.8501 0.4933 -5.01715 0.640947 2.17998 36.9129 1.77792 0.121114 39.8976 1.24227 8.96864 3.95569 18.6875 21.5775 -9.42785 9.45897 0.463707 -44.9937 3.51136 -3.30192 -26.6134 -8.56114 5.02833 0.196681 26.6089 -23.4113 5.82328 9.61819 -0.917488 -0.732858 -8.99616 -5.59001 4.37163 11.884 -5.46281 1.74448 15.9477 -12.6233 0.281019 -22.7401 -0.235589 0.0462048 0.000530889 0.662642 
10.3023 99.5338 -3.89912 -9.12666 0.889246 -92.0001 0.137288 -16.5422 -1.62607 1.02612 12.1752 18.1359 -5.30663 -10.8647 -0.0999997 -1.32781e-009 8.75223e-006 -1.45757e-008 5.99766 12.5041 0.572753 -4.93243 0.782849 2.12582 37.0117 1.77939 0.111494 40.1102 1.34605 8.58926 4.14853 19.8175 20.2526 -9.37406 9.45464 0.559839 -44.9812 3.51417 -3.29602 -26.4413 -8.8105 5.38962 -0.743634 27.1143 -21.4816 5.82328 9.61819 -0.917488 -0.683084 -9.04847 -5.28453 4.28464 13.418 -5.49705 1.54827 15.2382 -12.1761 0.80676 -23.4278 -0.163624 0.0462048 0.000530889 0.662642 
7.81635 99.1672 -3.79586 -8.71246 0.975914 -92.3538 0.164255 -16.5908 -1.27894 0.593334 10.7268 20.0941 -5.17016 -11.0273 -0.101761 -1.32781e-009 8.75223e-006 -1.45757e-008 5.43772 12.0028 0.604656 -4.81845 0.869132 2.05976 37.2278 1.78051 0.0947398 40.2749 0.199576 7.9483 4.53245 21.5676 18.7572 -9.65172 9.42879 0.715452 -44.9991 3.51631 -3.29453 -26.0895 -10.0338 5.78085 -1.82341 28.6845 -19.4419 5.82328 9.61819 -0.917488 -0.554181 -9.22577 -5.1344 4.22355 14.584 -5.61194 1.33695 15.3287 -11.621 1.61615 -24.4183 -0.0403797 0.0462048 0.000530889 0.662642 
